<svg xmlns="http://www.w3.org/2000/svg" viewBox="88 88 1024 1024" width="1024" height="1024">
  <defs>
    <!-- White card + deep purple mark (Rami, 2026-08-09): matches the
         regenerated set's white cards and the calculator's purple family. -->
    <linearGradient id="tileGrad" x1="0.25" y1="0" x2="0.6" y2="1">
      <stop offset="0" stop-color="#FDFDFD"/>
      <stop offset="1" stop-color="#FDFDFD"/>
    </linearGradient>
    <linearGradient id="inkGradU" gradientUnits="userSpaceOnUse" x1="420" y1="240" x2="760" y2="940">
      <stop offset="0" stop-color="#24409E"/>
      <stop offset="0.45" stop-color="#142868"/>
      <stop offset="1" stop-color="#0A1440"/>
    </linearGradient>
    <filter id="ds" x="-20%" y="-20%" width="140%" height="140%">
      <feDropShadow dx="0" dy="18" stdDeviation="30" flood-color="#000000" flood-opacity="0.55"/>
    </filter>
    <path id="tilePath" d="M 416,88 L 784,88 C 981,88 1112,219 1112,416 L 1112,784 C 1112,981 981,1112 784,1112 L 416,1112 C 219,1112 88,981 88,784 L 88,416 C 88,219 219,88 416,88 Z"/>
  </defs>
  <use href="#tilePath" fill="url(#tileGrad)"/>
  <use href="#tilePath" fill="none" stroke="rgba(26,23,18,0.07)" stroke-width="3"/>
  <!-- Glyph scaled to the set's standard 58% inset (was ~75% tall). -->
  <g transform="translate(139.1,149.5) scale(0.772)"><path d="M 563.3,966.5 C 515.3,960.4 468.6,941.6 429.3,912.6 C 393.1,885.8 362.3,849.3 342.4,809.6 C 328.1,781.0 321.6,760.8 316.1,727.9 C 313.5,712.2 313.1,706.8 313.1,684.0 C 313.1,628.9 323.7,590.4 348.3,556.3 C 356.5,545.0 374.8,527.1 386.3,519.1 C 427.9,490.2 479.7,480.7 533.0,492.3 C 560.5,498.2 587.6,510.0 617.5,529.0 C 642.3,544.8 659.1,554.0 672.5,559.2 C 689.9,565.9 700.7,567.9 720.1,568.0 C 735.3,568.1 739.3,567.6 769.7,561.3 C 789.2,557.2 798.8,557.3 814.3,561.4 C 838.1,567.7 857.1,587.1 869.7,618.0 C 879.2,641.4 883.6,676.3 880.9,708.1 C 879.2,728.7 877.4,739.7 872.7,757.6 C 856.1,821.0 817.9,876.0 762.5,916.3 C 740.6,932.2 713.7,945.9 686.6,954.9 C 656.5,964.9 633.4,968.3 598.0,968.1 C 585.1,968.0 569.6,967.3 563.3,966.5 Z M 624.4,847.1 C 631.9,841.6 632.0,841.1 630.5,820.4 C 629.8,810.2 628.5,794.1 627.5,784.7 C 625.2,761.8 625.6,760.5 637.8,748.7 C 652.6,734.5 658.6,722.0 658.6,705.5 C 658.6,697.7 655.4,684.1 651.8,677.3 C 648.9,671.7 639.9,662.1 632.5,656.8 C 625.9,652.1 613.0,647.6 603.4,646.8 C 569.0,643.9 538.0,671.3 538.0,704.7 C 538.0,721.2 545.4,736.1 560.0,749.2 C 563.7,752.4 567.6,756.4 568.7,758.0 C 571.2,761.6 571.2,771.1 569.0,798.5 C 565.8,837.6 565.8,837.9 568.2,842.2 C 572.1,849.3 575.1,850.0 599.6,849.7 C 619.4,849.4 621.5,849.2 624.4,847.1 Z M 741.3,542.0 C 726.0,537.8 712.9,527.3 706.7,514.4 C 704.6,510.1 702.3,503.9 701.6,500.7 C 700.8,497.0 700.4,477.8 700.3,448.7 C 700.3,415.5 699.9,399.4 698.7,391.0 C 695.5,367.4 684.1,344.8 667.4,329.5 C 635.2,299.7 583.6,294.5 545.4,317.2 C 527.3,327.9 515.9,340.1 506.5,358.5 C 497.5,376.1 495.0,392.4 495.3,431.0 C 495.4,454.9 495.3,456.3 492.9,461.2 C 488.9,469.2 484.1,471.7 468.9,473.5 C 444.9,476.4 427.7,481.0 412.4,488.5 C 401.0,494.2 398.8,492.1 396.2,472.9 C 393.9,456.1 394.8,378.0 397.4,364.1 C 409.3,300.0 447.6,249.0 504.8,220.9 C 525.2,210.9 544.8,205.2 571.8,201.3 C 590.5,198.6 621.2,199.6 640.6,203.6 C 682.4,212.1 717.1,230.1 745.5,258.2 C 752.6,265.2 761.9,275.7 766.0,281.5 C 779.7,300.4 792.5,328.6 798.0,352.1 C 802.5,371.1 803.2,380.7 803.8,435.8 C 804.5,504.0 803.8,509.6 792.4,524.4 C 786.0,532.8 780.5,536.9 771.5,540.3 C 763.3,543.4 749.1,544.1 741.3,542.0 Z" fill="url(#inkGradU)" fill-rule="evenodd"/></g>
</svg>
